<?xml version="1.0" encoding="utf-8"?>
<!-- Generator: Adobe Illustrator 16.0.0, SVG Export Plug-In . SVG Version: 6.00 Build 0)  -->
<!DOCTYPE svg PUBLIC "-//W3C//DTD SVG 1.1//EN" "http://www.w3.org/Graphics/SVG/1.1/DTD/svg11.dtd">
<svg version="1.1" id="Calque_1" xmlns="http://www.w3.org/2000/svg" xmlns:xlink="http://www.w3.org/1999/xlink" x="0px" y="0px"
	 width="600.94px" height="720px" viewBox="0 0 600.94 720" enable-background="new 0 0 600.94 720" xml:space="preserve">
<g>
	<g>
		<path fill="#3A3A3A" d="M433.353,101.109c-37.712-7.936-71.113-33.263-86.341-71.292H246.267
			c-15.229,38.029-50.029,58.45-86.341,71.292C91.868,125.177,28.17,29.817,28.17,103.204c-0.062-0.003-0.124-0.007-0.187-0.011
			v254.253c0,262.608,271.758,332.385,271.758,332.385s271.758-69.777,271.758-332.385V100.812
			C571.499,35.787,499.448,115.019,433.353,101.109z"/>
	</g>
	
		<path fill="none" stroke="#25AD7B" stroke-width="27.3666" stroke-linecap="round" stroke-linejoin="round" stroke-miterlimit="10" d="
		M466.926,385.912c32.794-2.014,65.904-5.061,99.438-6.518"/>
	
		<path fill="none" stroke="#5AC4E7" stroke-width="27.3666" stroke-linecap="round" stroke-linejoin="round" stroke-miterlimit="10" d="
		M28.369,419.311c31.167-2.318,62.275-5.345,93.397-8.188"/>
	<path fill="#25AD7B" d="M276.643,15.247v188.069h0.364c-0.235,1.286-0.364,2.619-0.364,3.989c0,10.286,7.021,18.622,15.682,18.622
		c8.662,0,15.684-8.336,15.684-18.622c0-1.37-0.128-2.703-0.365-3.989h0.365v-17.55V17.785
		C297.556,16.892,287.1,16.058,276.643,15.247z"/>
	<path fill="#25AD7B" d="M591.187,133.533c7.483-4.378,10.019-14.022,5.657-21.54c-4.359-7.517-13.961-10.061-21.445-5.682
		c-0.997,0.583-1.902,1.262-2.719,2.013l-0.185-0.316l-0.759,0.445L404.139,216.298l0.184,0.316
		c-1.056,0.341-2.09,0.798-3.086,1.382c-7.484,4.379-10.02,14.022-5.658,21.539c4.36,7.518,13.961,10.061,21.444,5.682
		c0.998-0.583,1.902-1.262,2.721-2.015l0.184,0.316l12.771-7.472l155.587-100.816l-0.184-0.317
		C589.154,134.573,590.189,134.117,591.187,133.533z"/>
	<path fill="#5AC4E7" d="M123.723,202.795c-8.375-2.219-16.956,2.8-19.166,11.212s2.788,17.031,11.164,19.249
		c1.115,0.295,2.234,0.459,3.34,0.507l-0.093,0.353l0.852,0.226l53.276,14.117l0.093-0.354c0.985,0.507,2.04,0.92,3.154,1.214
		c8.375,2.219,16.955-2.8,19.166-11.211c2.209-8.413-2.788-17.029-11.165-19.25c-1.115-0.295-2.233-0.458-3.341-0.506l0.094-0.355
		l-14.291-3.785l-39.836-10.557l-0.093,0.355C125.891,203.503,124.837,203.091,123.723,202.795z"/>
	<ellipse fill="#5AC4E7" cx="76.583" cy="206.77" rx="16.121" ry="16.191"/>
	<path fill="#5AC4E7" d="M38.79,175.784c-1.115-0.296-2.233-0.458-3.341-0.507l0.094-0.354l-14.291-3.787l-12.656-3.354
		c0.04,10.908,0.161,21.815,0.502,32.713l18.443,4.888l0.093-0.354c0.987,0.508,2.04,0.919,3.155,1.214
		c8.375,2.22,16.955-2.799,19.166-11.211C52.164,186.621,47.164,178.002,38.79,175.784z"/>
	<linearGradient id="XMLID_2_" gradientUnits="userSpaceOnUse" x1="123.9526" y1="398.6113" x2="462.8105" y2="398.6113">
		<stop  offset="0" style="stop-color:#0BBBEF"/>
		<stop  offset="0.1191" style="stop-color:#1BBADE"/>
		<stop  offset="0.4258" style="stop-color:#30B6B4"/>
		<stop  offset="0.6855" style="stop-color:#3CB392"/>
		<stop  offset="0.8848" style="stop-color:#41B17D"/>
		<stop  offset="1" style="stop-color:#43B174"/>
	</linearGradient>
	<path id="XMLID_51_" fill="url(#XMLID_2_)" d="M462.779,298.409c-0.012-0.551-0.094-1.097-0.165-1.644
		c-0.056-0.427-0.088-0.856-0.183-1.27c-0.103-0.47-0.274-0.925-0.426-1.385c-0.155-0.468-0.288-0.94-0.484-1.385
		c-0.171-0.385-0.401-0.746-0.604-1.117c-0.271-0.488-0.529-0.976-0.849-1.427c-0.065-0.087-0.097-0.188-0.166-0.276
		c-0.196-0.271-0.444-0.476-0.661-0.731c-0.341-0.403-0.676-0.806-1.061-1.171c-0.352-0.335-0.729-0.623-1.107-0.918
		c-0.376-0.29-0.74-0.58-1.14-0.835c-0.417-0.264-0.847-0.48-1.282-0.698c-0.416-0.212-0.829-0.42-1.265-0.591
		c-0.466-0.178-0.937-0.308-1.414-0.44c-0.438-0.121-0.876-0.248-1.327-0.329c-0.543-0.096-1.086-0.13-1.634-0.167
		c-0.315-0.019-0.614-0.094-0.934-0.094H138.686c-0.325,0-0.63,0.076-0.949,0.097c-0.54,0.036-1.081,0.068-1.611,0.164
		c-0.463,0.081-0.9,0.209-1.346,0.332c-0.475,0.13-0.938,0.259-1.399,0.438c-0.44,0.171-0.853,0.381-1.271,0.593
		c-0.436,0.218-0.866,0.433-1.279,0.697c-0.404,0.256-0.771,0.545-1.14,0.837c-0.378,0.293-0.757,0.583-1.108,0.917
		c-0.385,0.365-0.72,0.768-1.062,1.171c-0.214,0.255-0.464,0.461-0.661,0.731c-0.069,0.087-0.102,0.188-0.166,0.276
		c-0.321,0.451-0.58,0.938-0.846,1.424c-0.208,0.374-0.436,0.734-0.608,1.121c-0.192,0.442-0.327,0.915-0.483,1.379
		c-0.148,0.462-0.322,0.917-0.427,1.389c-0.093,0.414-0.123,0.843-0.18,1.27c-0.076,0.547-0.154,1.093-0.165,1.644
		c-0.005,0.11-0.032,0.211-0.032,0.32v199.766c0,8.173,6.597,14.798,14.733,14.798h309.394c8.134,0,14.731-6.625,14.731-14.798
		V298.729C462.811,298.62,462.782,298.519,462.779,298.409z M403.521,313.526l-110.14,82.146L183.24,313.526H403.521z
		 M153.418,483.697v-155.55l131.179,97.833c2.604,1.948,5.695,2.919,8.785,2.919c3.086,0,6.171-0.971,8.783-2.919l131.179-97.833
		v155.55H153.418z"/>
	<path fill="#25AD7B" d="M319.47,704.402v-80.864h-0.363c0.234-1.088,0.363-2.216,0.363-3.375c0-8.699-7.021-15.751-15.683-15.751
		c-8.661,0-15.684,7.052-15.684,15.751c0,1.159,0.128,2.287,0.365,3.375h-0.365v77.813
		C298.537,702.271,308.995,703.354,319.47,704.402z"/>
	<ellipse fill="#25AD7B" cx="303.786" cy="571.048" rx="16.121" ry="16.19"/>
	<g>
		<g>
			<linearGradient id="SVGID_1_" gradientUnits="userSpaceOnUse" x1="0.6167" y1="359.8242" x2="598.8652" y2="359.8242">
				<stop  offset="0" style="stop-color:#0BBBEF"/>
				<stop  offset="0.1191" style="stop-color:#1BBADE"/>
				<stop  offset="0.4258" style="stop-color:#30B6B4"/>
				<stop  offset="0.6855" style="stop-color:#3CB392"/>
				<stop  offset="0.8848" style="stop-color:#41B17D"/>
				<stop  offset="1" style="stop-color:#43B174"/>
			</linearGradient>
			<path fill="url(#SVGID_1_)" d="M347.012,29.817c15.228,38.029,48.629,63.356,86.341,71.292
				c5.526,1.163,11.085,1.674,16.649,1.674c41.097,0,81.979-27.955,104.271-27.955c10.787,0,17.227,6.552,17.227,25.983v256.634
				c0,262.606-271.758,332.385-271.758,332.385S27.983,620.052,27.983,357.446V103.192c0.062,0.004,0.125,0.008,0.187,0.011
				c0-21.177,5.3-28.302,14.483-28.3c18.904,0.004,54.245,30.211,93.582,30.211c7.772,0,15.703-1.18,23.691-4.005
				c36.312-12.842,71.112-33.263,86.341-71.292H347.012 M347.012,2.451H246.267c-11.187,0-21.247,6.808-25.405,17.193
				c-9.832,24.55-32.094,42.238-70.06,55.665c-4.641,1.641-9.406,2.439-14.567,2.439c-16.977,0-35.086-8.738-51.064-16.447
				C69.868,53.917,56.652,47.54,42.66,47.537c-0.003,0-0.007,0-0.01,0c-14.793,0-27.394,7.373-34.575,20.231
				c-4.568,8.181-6.889,18.377-7.228,31.882c-0.152,1.168-0.23,2.351-0.23,3.543v254.253c0,64.829,15.55,124.232,46.218,176.56
				c24.419,41.665,58.316,78.711,100.75,110.109c71.414,52.841,142.365,71.456,145.351,72.223c2.232,0.573,4.52,0.859,6.806,0.859
				c2.287,0,4.573-0.286,6.806-0.859c2.986-0.767,73.937-19.382,145.352-72.223c42.433-31.398,76.329-68.444,100.749-110.109
				c30.668-52.328,46.218-111.731,46.218-176.56V100.812c0-15.409-3.206-27.307-9.804-36.376
				c-7.962-10.945-20.316-16.973-34.789-16.973c-14.638,0-29.635,5.893-47.001,12.716c-18.181,7.143-38.786,15.239-57.27,15.239
				c-3.933,0-7.536-0.355-11.014-1.087c-30.548-6.429-55.434-26.872-66.571-54.685C368.259,9.259,358.198,2.451,347.012,2.451
				L347.012,2.451z"/>
		</g>
	</g>
</g>
</svg>
