<?xml version="1.0" encoding="utf-8"?>
<!-- Generator: Adobe Illustrator 16.0.0, SVG Export Plug-In . SVG Version: 6.00 Build 0)  -->
<!DOCTYPE svg PUBLIC "-//W3C//DTD SVG 1.1//EN" "http://www.w3.org/Graphics/SVG/1.1/DTD/svg11.dtd">
<svg version="1.1" id="Calque_1" xmlns="http://www.w3.org/2000/svg" xmlns:xlink="http://www.w3.org/1999/xlink" x="0px" y="0px"
	 width="600.94px" height="720px" viewBox="0 0 600.94 720" enable-background="new 0 0 600.94 720" xml:space="preserve">
<g>
	<g>
		<path fill="#3A3A3A" d="M433.127,102.203c-37.288-7.928-70.313-33.23-85.371-71.218h-99.612
			c-15.06,37.988-49.467,58.389-85.371,71.218c-67.293,24.042-130.275-71.218-130.275,2.091c-0.062-0.002-0.123-0.007-0.184-0.01
			v253.987c0,262.333,268.703,332.038,268.703,332.038s268.702-69.705,268.702-332.038V101.905
			C569.719,36.948,498.479,116.098,433.127,102.203z"/>
	</g>
	<g>
		<g>
			<linearGradient id="SVGID_1_" gradientUnits="userSpaceOnUse" x1="5.1152" y1="360.6465" x2="596.917" y2="360.6465">
				<stop  offset="0" style="stop-color:#0BBBEF"/>
				<stop  offset="0.1191" style="stop-color:#1BBADE"/>
				<stop  offset="0.4258" style="stop-color:#30B6B4"/>
				<stop  offset="0.6855" style="stop-color:#3CB392"/>
				<stop  offset="0.8848" style="stop-color:#41B17D"/>
				<stop  offset="1" style="stop-color:#43B174"/>
			</linearGradient>
			<path fill="url(#SVGID_1_)" d="M347.756,30.984c15.058,37.988,48.083,63.29,85.371,71.218c5.465,1.162,10.961,1.672,16.463,1.672
				c40.634,0,81.057-27.926,103.097-27.926c10.665,0,17.032,6.545,17.032,25.956v256.365c0,262.333-268.702,332.038-268.702,332.038
				S32.313,620.604,32.313,358.271V104.284c0.061,0.003,0.122,0.008,0.184,0.01c0-21.155,5.24-28.272,14.32-28.271
				c18.691,0.005,53.636,30.18,92.531,30.18c7.685,0,15.526-1.179,23.424-4c35.904-12.829,70.312-33.23,85.371-71.218H347.756
				 M347.756,3.786h-99.612c-11.152,0-21.174,6.808-25.284,17.175c-9.733,24.552-31.734,42.229-69.239,55.629
				c-4.547,1.625-9.216,2.415-14.273,2.415c-16.697,0-34.566-8.711-50.332-16.396c-15.168-7.394-28.268-13.78-42.192-13.784
				c-0.003,0-0.007,0-0.011,0c-14.729,0-27.253,7.377-34.364,20.242c-4.495,8.132-6.777,18.276-7.108,31.72
				c-0.149,1.153-0.226,2.322-0.226,3.498v253.987c0,64.692,15.361,123.975,45.657,176.2c24.138,41.61,57.651,78.612,99.608,109.978
				c70.645,52.812,140.853,71.421,143.807,72.188c2.239,0.581,4.535,0.871,6.83,0.871s4.59-0.29,6.829-0.871
				c2.954-0.767,73.162-19.376,143.807-72.188c41.957-31.365,75.47-68.367,99.607-109.978
				c30.296-52.226,45.657-111.508,45.657-176.2V101.905c0-15.312-3.154-27.137-9.643-36.149
				c-7.896-10.966-20.179-17.005-34.588-17.005c-14.549,0-29.407,5.898-46.612,12.728c-17.945,7.124-38.285,15.198-56.484,15.198
				c-3.86,0-7.396-0.353-10.807-1.078c-30.146-6.41-54.723-26.834-65.743-54.637C368.931,10.595,358.908,3.786,347.756,3.786
				L347.756,3.786z"/>
		</g>
	</g>
	
		<path fill="none" stroke="#25AD7B" stroke-width="27.1982" stroke-linecap="round" stroke-linejoin="round" stroke-miterlimit="10" d="
		M100.415,581.937c29.961-2.252,410.653-60.054,440.573-62.817"/>
	
		<path fill="none" stroke="#5AC4E7" stroke-width="27.1982" stroke-linecap="round" stroke-linejoin="round" stroke-miterlimit="10" d="
		M172.506,639.452c44.56-6.38,89.145-12.578,133.724-18.829c44.629-6.255,89.251-12.562,133.834-19.146
		c18.482-2.729,36.961-5.506,55.429-8.348"/>
	<linearGradient id="XMLID_2_" gradientUnits="userSpaceOnUse" x1="110.7998" y1="349.4761" x2="468.4893" y2="349.4761">
		<stop  offset="0" style="stop-color:#0BBBEF"/>
		<stop  offset="0.1191" style="stop-color:#1BBADE"/>
		<stop  offset="0.4258" style="stop-color:#30B6B4"/>
		<stop  offset="0.6855" style="stop-color:#3CB392"/>
		<stop  offset="0.8848" style="stop-color:#41B17D"/>
		<stop  offset="1" style="stop-color:#43B174"/>
	</linearGradient>
	<path id="XMLID_32_" fill="url(#XMLID_2_)" d="M466.685,303.306c-3.371-12.002-10.602-21.21-20.899-26.631
		c-13.293-6.996-28.893-6.164-39.662-4.242l-22.797-81.147c-1.549-5.524-5.938-9.758-11.459-11.048
		c-5.518-1.292-11.29,0.559-15.073,4.835c-55.677,62.992-78.571,78.328-139.825,105.688l-48.192,14.097
		c-42.422,12.458-67.037,57.848-54.863,101.174c5.921,21.094,19.561,38.536,38.388,49.115c12.002,6.745,25.193,10.178,38.52,10.178
		c6.307,0,12.644-0.819,18.901-2.371l5.201,18.533c2.74,9.753,8.018,18.584,15.247,25.531l8.095,7.78
		c3.012,2.888,6.858,4.32,10.697,4.32c4.118,0,8.235-1.648,11.29-4.927c5.909-6.33,5.638-16.317-0.596-22.312l-8.094-7.781
		c-3.19-3.06-5.514-6.959-6.724-11.268l-5.198-18.503l22.404-6.554c64.518-9.763,93.587-9.079,172.499,13.812
		c1.414,0.408,2.849,0.608,4.274,0.608c4.068,0,8.039-1.621,10.996-4.617c3.995-4.054,5.515-9.979,3.965-15.489l-22.762-81.023
		c10.24-3.919,23.894-11.22,31.6-23.996C468.67,327.045,470.076,315.372,466.685,303.306z M167.371,427.54
		c-11.542-6.483-19.906-17.195-23.547-30.158c-7.488-26.663,7.585-54.564,33.586-62.201l34.999-10.239l16.084,57.259l11.042,39.315
		l-35.104,10.268C191.936,435.446,178.772,433.947,167.371,427.54z M325.752,410.212c-17.383,0-35.016,1.645-55.776,4.521
		l-22.69-80.768l-5.573-19.849c49.647-22.893,76.073-40.596,119.319-87.059l55.273,196.776
		C379.416,414.222,352.895,410.212,325.752,410.212z M436.112,320.557c-2.511,4.201-8.179,7.61-13.663,9.987l-7.72-27.468
		c5.868-0.722,12.388-0.671,16.732,1.618c1.898,0.993,4.01,2.642,5.306,7.261C438.035,316.45,437.149,318.827,436.112,320.557z
		 M337.659,294.443c4.407,6.174,3.053,14.807-3.035,19.284c-14.203,10.444-30.618,19.167-31.312,19.53
		c-2.004,1.062-4.156,1.567-6.276,1.567c-4.908,0-9.646-2.701-12.077-7.424c-3.474-6.759-0.892-15.099,5.772-18.627
		c0.15-0.08,15.367-8.178,27.92-17.407C324.742,286.893,333.245,288.271,337.659,294.443z"/>
	<path fill="#5AC4E7" d="M129.791,180.884c-7.291-4.081-16.461-1.391-20.482,6.007c-4.021,7.399-1.371,16.706,5.92,20.786
		c0.973,0.541,1.978,0.962,2.997,1.271l-0.168,0.311l0.739,0.414l46.383,25.957l0.169-0.311c0.802,0.712,1.687,1.35,2.659,1.893
		c7.289,4.083,16.459,1.391,20.48-6.005c4.022-7.4,1.371-16.706-5.92-20.789c-0.972-0.541-1.976-0.96-2.996-1.269l0.17-0.311
		l-12.443-6.963l-34.68-19.409l-0.168,0.311C131.648,182.066,130.763,181.429,129.791,180.884z"/>
	<path fill="#5AC4E7" d="M99.945,177.257c-2.085,8.424-10.506,13.538-18.807,11.422s-13.342-10.66-11.256-19.084
		c2.085-8.421,10.506-13.536,18.806-11.42C96.99,160.291,102.03,168.834,99.945,177.257z"/>
	<path fill="#5AC4E7" d="M56.9,135.259c-0.971-0.542-1.974-0.963-2.996-1.271l0.17-0.313l-12.442-6.96l-11.017-6.168
		c-2.505,10.285-4.937,20.589-7.16,30.936l16.056,8.986l0.171-0.312c0.801,0.711,1.688,1.351,2.658,1.895
		c7.292,4.08,16.46,1.39,20.481-6.008C66.844,148.645,64.192,139.339,56.9,135.259z"/>
	<path fill="#25AD7B" d="M506.398,383.286c-7.291-4.081-16.461-1.394-20.482,6.008c-4.021,7.397-1.371,16.703,5.92,20.786
		c0.972,0.541,1.976,0.96,2.996,1.269l-0.169,0.311l0.741,0.416l46.381,25.957l0.171-0.311c0.802,0.711,1.686,1.35,2.657,1.892
		c7.291,4.081,16.461,1.392,20.482-6.007c4.021-7.399,1.371-16.706-5.921-20.786c-0.972-0.541-1.974-0.961-2.997-1.271l0.169-0.312
		l-12.44-6.962l-34.681-19.409l-0.17,0.312C508.255,384.47,507.367,383.829,506.398,383.286z"/>
	<path fill="#25AD7B" d="M283.374,8.058v139.166h0.35c-0.227,0.951-0.35,1.938-0.35,2.95c0,7.611,6.748,13.781,15.075,13.781
		c8.326,0,15.077-6.169,15.077-13.781c0-1.013-0.124-2-0.352-2.95h0.352v-12.987V9.936C303.478,9.275,293.427,8.658,283.374,8.058z"
		/>
	
		<path fill="none" stroke="#25AD7B" stroke-width="27.1982" stroke-linecap="round" stroke-linejoin="round" stroke-miterlimit="10" d="
		M503.277,287.625c19.393-3.603,38.465-8.665,57.807-12.494"/>
	
		<path fill="none" stroke="#5AC4E7" stroke-width="27.1982" stroke-linecap="round" stroke-linejoin="round" stroke-miterlimit="10" d="
		M24.009,400.977c15.9-3.775,31.718-7.874,47.688-11.343"/>
	<path fill="#25AD7B" d="M562.17,78.457c-0.208,0.153-0.419,0.291-0.622,0.449c-1.315,1.025-2.525,2.12-3.626,3.265l-0.214-0.286
		L540.811,95l-47.103,36.548l0.212,0.282c-1.374,0.777-2.734,1.675-4.053,2.697c-9.902,7.683-13.832,19.353-8.773,26.065
		s17.185,5.923,27.088-1.759c1.318-1.023,2.529-2.119,3.631-3.264l0.209,0.283l1.007-0.78l58.914-45.712
		C568.429,99.149,564.615,88.948,562.17,78.457z"/>
	<path fill="#25AD7B" d="M468.633,165.417c6.763,5.324,7.989,15.204,2.741,22.065c-5.249,6.861-14.982,8.104-21.746,2.78
		c-6.761-5.326-7.987-15.204-2.738-22.065C452.138,161.334,461.873,160.09,468.633,165.417z"/>
</g>
</svg>
