<?xml version="1.0" encoding="utf-8"?>
<!-- Generator: Adobe Illustrator 16.0.0, SVG Export Plug-In . SVG Version: 6.00 Build 0)  -->
<!DOCTYPE svg PUBLIC "-//W3C//DTD SVG 1.1//EN" "http://www.w3.org/Graphics/SVG/1.1/DTD/svg11.dtd">
<svg version="1.1" id="Calque_1" xmlns="http://www.w3.org/2000/svg" xmlns:xlink="http://www.w3.org/1999/xlink" x="0px" y="0px"
	 width="600.94px" height="720px" viewBox="0 0 600.94 720" enable-background="new 0 0 600.94 720" xml:space="preserve">
<g>
	<g>
		<path fill="#3A3A3A" d="M433.562,100.962c-37.288-7.944-70.312-33.299-85.371-71.367h-99.612
			c-15.06,38.067-49.467,58.511-85.37,71.367c-67.293,24.093-130.276-71.367-130.276,2.095c-0.062-0.002-0.123-0.007-0.183-0.01
			v254.52c0,262.882,268.701,332.734,268.701,332.734s268.704-69.852,268.704-332.734V100.665
			C570.155,35.572,498.916,114.887,433.562,100.962z"/>
	</g>
	<path fill="#25AD7B" d="M283.224,14.887V135.72h0.36c-0.234,1.088-0.36,2.217-0.36,3.377c0,8.709,6.942,15.769,15.506,15.769
		c8.564,0,15.507-7.06,15.507-15.769c0-1.16-0.126-2.289-0.359-3.377h0.359v-14.86V17.036
		C303.901,16.279,293.563,15.574,283.224,14.887z"/>
	
		<path fill="none" stroke="#25AD7B" stroke-width="27.2267" stroke-linecap="round" stroke-linejoin="round" stroke-miterlimit="10" d="
		M403.67,353.194c50.024-3.626,100.047-7.253,150.07-10.88c7.164-0.52,14.328-1.039,21.49-1.558"/>
	
		<line fill="none" stroke="#5AC4E7" stroke-width="27.2267" stroke-linecap="round" stroke-linejoin="round" stroke-miterlimit="10" x1="26.303" y1="386.012" x2="197.593" y2="371.48"/>
	<ellipse fill="#25AD7B" cx="298.73" cy="183.42" rx="15.94" ry="16.209"/>
	
		<path fill="none" stroke="#25AD7B" stroke-width="27.2267" stroke-linecap="round" stroke-linejoin="round" stroke-miterlimit="10" d="
		M440.817,197.869c42.7-40.787,85.31-79.503,127.576-119.035"/>
	
		<path fill="none" stroke="#5AC4E7" stroke-width="27.2267" stroke-linecap="round" stroke-linejoin="round" stroke-miterlimit="10" d="
		M166.23,205.252c-37.125-25.116-74.089-50.418-111.371-75.31c-8.008-5.346-16.003-10.711-23.971-16.119"/>
	<path fill="#5AC4E7" d="M118.778,263.777c-1.131-0.15-2.248-0.168-3.34-0.072l0.047-0.364l-14.492-1.915L18.56,250.531
		c0.385,10.736,1.363,21.439,2.512,32.133l90.415,11.95l0.047-0.362c1.031,0.375,2.116,0.647,3.248,0.798
		c8.493,1.122,16.271-4.968,17.376-13.604C133.261,272.81,127.27,264.9,118.778,263.777z"/>
	<path fill="#25AD7B" d="M492.317,255.617c1.13-0.149,2.248-0.167,3.34-0.071l-0.047-0.363l14.491-1.917l82.434-10.896
		c-0.385,10.737-1.362,21.439-2.511,32.134l-90.416,11.95l-0.047-0.364c-1.031,0.377-2.116,0.649-3.248,0.799
		c-8.493,1.123-16.271-4.967-17.375-13.604C477.836,264.649,483.824,256.739,492.317,255.617z"/>
	<path fill="#25AD7B" d="M291.345,639.602l0.005,14.86l0.015,39.799c10.274,0.302,20.786,0.878,31.015-0.132l-0.021-54.539h-0.36
		c0.232-1.088,0.359-2.216,0.358-3.376c-0.003-8.709-6.947-15.766-15.512-15.764c-8.564,0.004-15.504,7.066-15.501,15.775
		c0,1.16,0.127,2.288,0.362,3.376H291.345z"/>
	
		<path fill="none" stroke="#25AD7B" stroke-width="27.2267" stroke-linecap="round" stroke-linejoin="round" stroke-miterlimit="10" d="
		M365.203,435.35c66.593-4.154,133.614-10.256,201.207-14.482"/>
	
		<line fill="none" stroke="#5AC4E7" stroke-width="27.2267" stroke-linecap="round" stroke-linejoin="round" stroke-miterlimit="10" x1="43.377" y1="460.708" x2="241.535" y2="444.734"/>
	<linearGradient id="SVGID_1_" gradientUnits="userSpaceOnUse" x1="197.3809" y1="410.1162" x2="416.623" y2="410.1162">
		<stop  offset="0" style="stop-color:#0BBBEF"/>
		<stop  offset="0.1191" style="stop-color:#1BBADE"/>
		<stop  offset="0.4258" style="stop-color:#30B6B4"/>
		<stop  offset="0.6855" style="stop-color:#3CB392"/>
		<stop  offset="0.8848" style="stop-color:#41B17D"/>
		<stop  offset="1" style="stop-color:#43B174"/>
	</linearGradient>
	<path fill="url(#SVGID_1_)" d="M307.035,240.292c-60.072,0-109.654,50.222-109.654,111.951c0,37.64,14.659,67.957,43.888,88.187
		v36.187c0,4.121,2.399,8.058,5.382,10.855c2.696,2.524,6.566,3.911,10.206,3.911c0.389,0,0.953-0.019,1.342-0.046l100.516-8.181
		c7.547-0.616,14.084-7.022,14.084-14.721v-27.761c25.575-18.733,43.825-51.134,43.825-88.432
		C416.623,290.514,367.114,240.292,307.035,240.292z M350.715,419.253c-4.733,2.565-7.146,7.577-7.146,13.036v22.526l-73.071,5.797
		v-28.317c0-5.251-2.128-10.108-6.59-12.754c-25.157-14.92-37.075-36.929-37.075-67.298c0-45.443,35.998-82.416,80.052-82.416
		c44.052,0,80.246,36.973,80.246,82.416C387.13,381.736,373.734,406.784,350.715,419.253z M371.484,514.569
		c0.584,8.138-5.432,15.21-13.434,15.798l-99.788,7.37c-0.361,0.027-0.717,0.041-1.07,0.041c-7.543,0-13.916-5.926-14.474-13.699
		c-0.582-8.133,5.437-15.207,13.434-15.797l99.793-7.371C363.927,500.313,370.907,506.435,371.484,514.569z M339.694,561.208
		c0.613,8.129-5.371,15.228-13.369,15.854l-36.212,2.835c-0.379,0.027-0.756,0.043-1.131,0.043c-7.515,0-13.881-5.889-14.469-13.636
		c-0.612-8.129,5.371-15.229,13.37-15.854l36.211-2.835C332.105,547.023,339.076,553.073,339.694,561.208z M365.269,351.971
		c-0.638,6.677-6.169,11.666-12.632,11.666c-0.412,0-0.829-0.021-1.252-0.062c-6.984-0.692-12.095-7.012-11.413-14.115
		c2.028-21.134-16.235-28.633-18.321-29.419c-6.539-2.465-9.969-9.842-7.606-16.512c2.365-6.673,9.513-10.182,16.095-7.849
		C343.696,300.494,368.486,318.455,365.269,351.971z"/>
	<path d="M38,494.04"/>
	<g>
		<g>
			<linearGradient id="SVGID_2_" gradientUnits="userSpaceOnUse" x1="5.5234" y1="359.9487" x2="597.3818" y2="359.9487">
				<stop  offset="0" style="stop-color:#0BBBEF"/>
				<stop  offset="0.1191" style="stop-color:#1BBADE"/>
				<stop  offset="0.4258" style="stop-color:#30B6B4"/>
				<stop  offset="0.6855" style="stop-color:#3CB392"/>
				<stop  offset="0.8848" style="stop-color:#41B17D"/>
				<stop  offset="1" style="stop-color:#43B174"/>
			</linearGradient>
			<path fill="url(#SVGID_2_)" d="M348.191,29.596c15.059,38.067,48.083,63.422,85.371,71.367
				c5.465,1.165,10.961,1.676,16.463,1.676c40.635,0,81.058-27.984,103.098-27.984c10.665,0,17.032,6.559,17.032,26.01v256.903
				c0,262.882-268.704,332.734-268.704,332.734S32.75,620.45,32.75,357.568v-254.52c0.06,0.003,0.121,0.008,0.183,0.01
				c0-21.199,5.241-28.332,14.32-28.329c18.692,0.005,53.636,30.243,92.531,30.243c7.685,0,15.526-1.181,23.425-4.009
				c35.903-12.855,70.311-33.299,85.37-71.367H348.191 M348.191,2.369h-99.612c-11.171,0-21.208,6.823-25.317,17.211
				c-9.735,24.608-31.734,42.323-69.231,55.749c-4.539,1.625-9.2,2.416-14.247,2.416c-16.679,0-34.541-8.726-50.3-16.424
				C74.309,53.908,61.203,47.505,47.26,47.502c-0.004,0-0.008,0-0.012,0c-14.75,0-27.288,7.395-34.401,20.29
				c-4.492,8.143-6.771,18.3-7.1,31.767c-0.149,1.151-0.225,2.315-0.225,3.489v254.52c0,64.814,15.358,124.208,45.647,176.534
				c24.137,41.695,57.649,78.773,99.606,110.204c70.651,52.928,140.87,71.579,143.824,72.347c2.246,0.584,4.548,0.876,6.85,0.876
				c2.302,0,4.604-0.292,6.85-0.876c2.955-0.768,73.174-19.419,143.826-72.346c41.957-31.432,75.47-68.51,99.606-110.205
				c30.29-52.325,45.648-111.72,45.648-176.534V100.665c0-15.328-3.15-27.165-9.632-36.186c-7.9-10.995-20.197-17.051-34.627-17.051
				c-14.564,0-29.429,5.913-46.641,12.76c-17.939,7.136-38.273,15.225-56.457,15.225c-3.854,0-7.383-0.353-10.789-1.079
				c-30.134-6.42-54.705-26.889-65.728-54.753C369.4,9.193,359.362,2.369,348.191,2.369L348.191,2.369z"/>
		</g>
	</g>
</g>
</svg>
